<svg width="9" height="10" viewBox="0 0 9 10" fill="none" xmlns="http://www.w3.org/2000/svg">
<path d="M4.37316 0.851288C4.47459 0.59117 4.85275 0.624255 4.90746 0.898033L5.48015 3.76369C5.49882 3.85714 5.56384 3.93463 5.65263 3.96925L8.37531 5.03085C8.63543 5.13228 8.60234 5.51044 8.32856 5.56515L5.4629 6.13784C5.36945 6.15651 5.29197 6.22153 5.25735 6.31032L4.19574 9.033C4.09432 9.29312 3.71616 9.26003 3.66145 8.98625L3.08876 6.12059C3.07008 6.02714 3.00506 5.94966 2.91627 5.91504L0.193598 4.85343C-0.0665204 4.75201 -0.0334351 4.37385 0.240343 4.31914L3.106 3.74645C3.19945 3.72777 3.27694 3.66275 3.31156 3.57396L4.37316 0.851288Z" fill="currentColor"/>
</svg>
